<mxfile host="Electron" agent="Mozilla/5.0 (Macintosh; Intel Mac OS X 10_15_7) AppleWebKit/537.36 (KHTML, like Gecko) draw.io/26.0.16 Chrome/132.0.6834.196 Electron/34.2.0 Safari/537.36" version="26.0.16">
  <diagram name="Page-1" id="LiEaA8Tvn8LkDsZTM2Cr">
    <mxGraphModel dx="1306" dy="823" grid="1" gridSize="10" guides="1" tooltips="1" connect="1" arrows="1" fold="1" page="1" pageScale="1" pageWidth="850" pageHeight="1100" math="0" shadow="0">
      <root>
        <mxCell id="0" />
        <mxCell id="1" parent="0" />
        <mxCell id="c8qr-rYVFeXZm82aAOZV-5" value="Linux machine" style="sketch=0;outlineConnect=0;gradientColor=none;html=1;whiteSpace=wrap;fontSize=12;fontStyle=0;shape=mxgraph.aws4.group;grIcon=mxgraph.aws4.group_vpc;strokeColor=#879196;fillColor=none;verticalAlign=top;align=left;spacingLeft=30;fontColor=#879196;dashed=0;" vertex="1" parent="1">
          <mxGeometry x="160" y="150" width="540" height="360" as="geometry" />
        </mxCell>
        <mxCell id="c8qr-rYVFeXZm82aAOZV-8" style="edgeStyle=orthogonalEdgeStyle;rounded=0;orthogonalLoop=1;jettySize=auto;html=1;" edge="1" parent="1" source="c8qr-rYVFeXZm82aAOZV-1" target="c8qr-rYVFeXZm82aAOZV-3">
          <mxGeometry relative="1" as="geometry">
            <Array as="points">
              <mxPoint x="620" y="300" />
            </Array>
          </mxGeometry>
        </mxCell>
        <mxCell id="c8qr-rYVFeXZm82aAOZV-10" value="Persist storage" style="edgeLabel;html=1;align=center;verticalAlign=middle;resizable=0;points=[];" vertex="1" connectable="0" parent="c8qr-rYVFeXZm82aAOZV-8">
          <mxGeometry x="-0.1429" relative="1" as="geometry">
            <mxPoint x="29" y="-14" as="offset" />
          </mxGeometry>
        </mxCell>
        <mxCell id="c8qr-rYVFeXZm82aAOZV-9" style="edgeStyle=orthogonalEdgeStyle;rounded=0;orthogonalLoop=1;jettySize=auto;html=1;" edge="1" parent="1" source="c8qr-rYVFeXZm82aAOZV-1" target="c8qr-rYVFeXZm82aAOZV-2">
          <mxGeometry relative="1" as="geometry">
            <Array as="points">
              <mxPoint x="620" y="320" />
            </Array>
          </mxGeometry>
        </mxCell>
        <mxCell id="c8qr-rYVFeXZm82aAOZV-11" value="Stores Channels sessions" style="edgeLabel;html=1;align=center;verticalAlign=middle;resizable=0;points=[];" vertex="1" connectable="0" parent="c8qr-rYVFeXZm82aAOZV-9">
          <mxGeometry x="0.5592" y="-1" relative="1" as="geometry">
            <mxPoint as="offset" />
          </mxGeometry>
        </mxCell>
        <mxCell id="c8qr-rYVFeXZm82aAOZV-1" value="Django web app" style="rounded=1;whiteSpace=wrap;html=1;" vertex="1" parent="1">
          <mxGeometry x="420" y="280" width="120" height="60" as="geometry" />
        </mxCell>
        <mxCell id="c8qr-rYVFeXZm82aAOZV-2" value="redis" style="strokeWidth=2;html=1;shape=mxgraph.flowchart.database;whiteSpace=wrap;" vertex="1" parent="1">
          <mxGeometry x="590" y="380" width="60" height="60" as="geometry" />
        </mxCell>
        <mxCell id="c8qr-rYVFeXZm82aAOZV-3" value="postgres" style="strokeWidth=2;html=1;shape=mxgraph.flowchart.database;whiteSpace=wrap;" vertex="1" parent="1">
          <mxGeometry x="590" y="200" width="60" height="60" as="geometry" />
        </mxCell>
        <mxCell id="c8qr-rYVFeXZm82aAOZV-16" style="edgeStyle=orthogonalEdgeStyle;rounded=0;orthogonalLoop=1;jettySize=auto;html=1;entryX=0;entryY=0.5;entryDx=0;entryDy=0;" edge="1" parent="1" source="c8qr-rYVFeXZm82aAOZV-4" target="c8qr-rYVFeXZm82aAOZV-6">
          <mxGeometry relative="1" as="geometry" />
        </mxCell>
        <mxCell id="c8qr-rYVFeXZm82aAOZV-17" value="Interacts with website" style="edgeLabel;html=1;align=center;verticalAlign=middle;resizable=0;points=[];" vertex="1" connectable="0" parent="c8qr-rYVFeXZm82aAOZV-16">
          <mxGeometry x="-0.2352" y="1" relative="1" as="geometry">
            <mxPoint x="13" y="1" as="offset" />
          </mxGeometry>
        </mxCell>
        <mxCell id="c8qr-rYVFeXZm82aAOZV-4" value="Player" style="shape=umlActor;verticalLabelPosition=bottom;verticalAlign=top;html=1;outlineConnect=0;" vertex="1" parent="1">
          <mxGeometry x="10" y="330" width="30" height="60" as="geometry" />
        </mxCell>
        <mxCell id="c8qr-rYVFeXZm82aAOZV-12" style="edgeStyle=orthogonalEdgeStyle;rounded=0;orthogonalLoop=1;jettySize=auto;html=1;entryX=0;entryY=0.5;entryDx=0;entryDy=0;" edge="1" parent="1" source="c8qr-rYVFeXZm82aAOZV-6" target="c8qr-rYVFeXZm82aAOZV-1">
          <mxGeometry relative="1" as="geometry" />
        </mxCell>
        <mxCell id="c8qr-rYVFeXZm82aAOZV-14" value="Reverse proxies" style="edgeLabel;html=1;align=center;verticalAlign=middle;resizable=0;points=[];" vertex="1" connectable="0" parent="c8qr-rYVFeXZm82aAOZV-12">
          <mxGeometry x="0.0886" y="1" relative="1" as="geometry">
            <mxPoint as="offset" />
          </mxGeometry>
        </mxCell>
        <mxCell id="c8qr-rYVFeXZm82aAOZV-13" style="edgeStyle=orthogonalEdgeStyle;rounded=0;orthogonalLoop=1;jettySize=auto;html=1;entryX=0;entryY=0.5;entryDx=0;entryDy=0;" edge="1" parent="1" source="c8qr-rYVFeXZm82aAOZV-6" target="c8qr-rYVFeXZm82aAOZV-7">
          <mxGeometry relative="1" as="geometry" />
        </mxCell>
        <mxCell id="c8qr-rYVFeXZm82aAOZV-15" value="Serves" style="edgeLabel;html=1;align=center;verticalAlign=middle;resizable=0;points=[];" vertex="1" connectable="0" parent="c8qr-rYVFeXZm82aAOZV-13">
          <mxGeometry x="0.1386" y="-2" relative="1" as="geometry">
            <mxPoint as="offset" />
          </mxGeometry>
        </mxCell>
        <mxCell id="c8qr-rYVFeXZm82aAOZV-6" value="nginx" style="rounded=1;whiteSpace=wrap;html=1;" vertex="1" parent="1">
          <mxGeometry x="190" y="330" width="120" height="60" as="geometry" />
        </mxCell>
        <mxCell id="c8qr-rYVFeXZm82aAOZV-7" value="/static" style="rounded=1;whiteSpace=wrap;html=1;" vertex="1" parent="1">
          <mxGeometry x="420" y="410" width="120" height="60" as="geometry" />
        </mxCell>
      </root>
    </mxGraphModel>
  </diagram>
</mxfile>
